<?xml version="1.0" encoding="UTF-8"?>
<svg width="675px" height="93px" viewBox="0 0 675 93" version="1.1" xmlns="http://www.w3.org/2000/svg" xmlns:xlink="http://www.w3.org/1999/xlink">
    <!-- Generator: Sketch 61 (89581) - https://sketch.com -->
    <title>logo</title>
    <desc>Created with Sketch.</desc>
    <defs>
        <linearGradient x1="-0.0216028926%" y1="49.9999974%" x2="99.9783971%" y2="49.9999974%" id="linearGradient-1">
            <stop stop-color="#FDA9FF" offset="0%"></stop>
            <stop stop-color="#039CFF" offset="100%"></stop>
        </linearGradient>
        <linearGradient x1="0%" y1="49.9827049%" x2="100%" y2="49.9827049%" id="linearGradient-2">
            <stop stop-color="#FDA9FF" offset="0%"></stop>
            <stop stop-color="#039CFF" offset="100%"></stop>
        </linearGradient>
        <linearGradient x1="-0.00882145378%" y1="49.9938172%" x2="99.9911785%" y2="49.9938172%" id="linearGradient-3">
            <stop stop-color="#FDA9FF" offset="0%"></stop>
            <stop stop-color="#039CFF" offset="100%"></stop>
        </linearGradient>
        <linearGradient x1="-0.0161616162%" y1="49.9933342%" x2="99.9838384%" y2="49.9933342%" id="linearGradient-4">
            <stop stop-color="#FDA9FF" offset="0%"></stop>
            <stop stop-color="#039CFF" offset="100%"></stop>
        </linearGradient>
        <linearGradient x1="-0.0298284862%" y1="50%" x2="100%" y2="50%" id="linearGradient-5">
            <stop stop-color="#FDA9FF" offset="0%"></stop>
            <stop stop-color="#039CFF" offset="100%"></stop>
        </linearGradient>
        <linearGradient x1="0%" y1="50%" x2="99.9723317%" y2="50%" id="linearGradient-6">
            <stop stop-color="#FDA9FF" offset="0%"></stop>
            <stop stop-color="#039CFF" offset="100%"></stop>
        </linearGradient>
        <linearGradient x1="-1.83460557e-14%" y1="50%" x2="100%" y2="50%" id="linearGradient-7">
            <stop stop-color="#FDA9FF" offset="0%"></stop>
            <stop stop-color="#039CFF" offset="100%"></stop>
        </linearGradient>
        <linearGradient x1="0.0241984271%" y1="50%" x2="100.024198%" y2="50%" id="linearGradient-8">
            <stop stop-color="#FDA9FF" offset="0%"></stop>
            <stop stop-color="#039CFF" offset="100%"></stop>
        </linearGradient>
        <linearGradient x1="1.61762717e-14%" y1="49.9781182%" x2="100%" y2="49.9781182%" id="linearGradient-9">
            <stop stop-color="#FDA9FF" offset="0%"></stop>
            <stop stop-color="#039CFF" offset="100%"></stop>
        </linearGradient>
        <linearGradient x1="-0.0268744961%" y1="50.0626409%" x2="99.9892502%" y2="50.0626409%" id="linearGradient-10">
            <stop stop-color="#FDA9FF" offset="0%"></stop>
            <stop stop-color="#039CFF" offset="100%"></stop>
        </linearGradient>
        <linearGradient x1="-0.0254478827%" y1="49.9705882%" x2="99.9745521%" y2="49.9705882%" id="linearGradient-11">
            <stop stop-color="#FDA9FF" offset="0%"></stop>
            <stop stop-color="#039CFF" offset="100%"></stop>
        </linearGradient>
    </defs>
    <g id="页面-1" stroke="none" stroke-width="1" fill="none" fill-rule="evenodd">
        <g id="logo" fill-rule="nonzero">
            <path d="M257.35,60.38 L257.35,48.05 L224.55,48.05 C222.252495,48.05 220.39,46.1875046 220.39,43.89 L220.39,32.33 L223.78,32.33 L223.78,44.66 L257.35,44.66 L257.35,32.33 L260.73,32.33 L260.73,60.38 L257.35,60.38 Z" id="路径" fill="#212121"></path>
            <path d="M285.76,60.3 C278.028014,60.3 271.76,54.0319865 271.76,46.3 C271.76,38.5680135 278.028014,32.3 285.76,32.3 L312.03,32.42 L312.03,35.81 L285.77,35.69 C279.904736,35.69 275.15,40.444736 275.15,46.31 C275.15,52.175264 279.904736,56.93 285.77,56.93 L312.04,57.04 L312.04,60.43 L285.76,60.3 Z M287.76,48.12 L287.76,44.73 L312.03,44.84 L312.03,48.22 L287.76,48.12 Z" id="形状" fill="#212121"></path>
            <path d="M344.55,60.3800052 C343.419165,60.3809538 342.336432,59.9225968 341.55,59.11 L341.43,58.98 L325.43,33.88 L328.29,32.06 L344.55,57.57 L360.82,32.07 L363.68,33.89 L347.68,58.98 L347.57,59.11 C346.776097,59.9237233 345.686849,60.3817844 344.55,60.3800052 L344.55,60.3800052 Z" id="路径" fill="#212121"></path>
            <path d="M387.42,60.26 C379.688014,60.26 373.42,53.9919865 373.42,46.26 C373.42,38.5280135 379.688014,32.26 387.42,32.26 L413.7,32.37 L413.7,35.76 L387.44,35.65 C383.569934,35.5312019 379.941903,37.5280251 377.971761,40.8612013 C376.001619,44.1943775 376.001619,48.3356225 377.971761,51.6687987 C379.941903,55.0019749 383.569934,56.9987981 387.44,56.88 L413.72,57 L413.72,60.38 L387.42,60.26 Z M389.42,48.08 L389.42,44.69 L413.69,44.8 L413.69,48.19 L389.42,48.08 Z" id="形状" fill="#212121"></path>
            <path d="M443.42,60.44 C441.126402,60.4344865 439.269993,58.573605 439.27,56.28 L439.27,48.84 C439.27,46.5480183 441.128018,44.69 443.42,44.69 L456.91,44.69 C458.114086,44.6847073 459.266753,44.2013039 460.11442,43.3461355 C460.962087,42.4909671 461.435316,41.3340864 461.43,40.13 L461.43,39.98 C461.43,37.5830842 459.486916,35.64 457.09,35.64 L427.88,35.64 L427.88,60.44 L424.49,60.44 L424.49,36.44 C424.495498,34.1447765 426.354776,32.2854976 428.65,32.28 L457.09,32.28 C461.359161,32.28 464.820007,35.7408389 464.820007,40.01 L464.820007,40.16 C464.825544,44.5373535 461.287326,48.0934644 456.91,48.11 L442.66,48.11 L442.66,57.11 L463.66,57.11 L463.66,60.44 L443.42,60.44 Z" id="路径" fill="#212121"></path>
            <path d="M481.05,60.37 C478.752495,60.37 476.89,58.5075046 476.89,56.21 L476.89,32.34 L480.28,32.34 L480.28,56.98 L517.06,56.98 L517.06,60.37 L481.05,60.37 Z" id="路径" fill="#212121"></path>
            <path d="M566.08,60.37 L566.08,49.44 L541.45,49.44 L541.45,46.05 L566.08,46.05 L566.08,35.72 L532.55,35.72 L532.55,60.37 L529.16,60.37 L529.16,36.49 C529.165513,34.1964017 531.026395,32.34 533.32,32.34 L565.32,32.34 C567.613605,32.34 569.474487,34.1964017 569.48,36.49 L569.48,60.37 L566.08,60.37 Z" id="路径" fill="#212121"></path>
            <path d="M617.71,60.51 C617.041675,60.5087002 616.383357,60.3475494 615.79,60.04 L615.63,59.96 L584.93,34.8 L584.93,60.38 L581.549937,60.38 L581.549937,36.38 C581.542009,34.9233954 582.300091,33.5697632 583.546235,32.8155181 C584.792379,32.0612729 586.343212,32.0174043 587.63,32.7 L587.78,32.78 L618.49,57.94 L618.49,32.33 L621.880036,32.33 L621.880036,56.33 C621.886093,57.7832491 621.126111,59.1322178 619.88,59.88 C619.22822,60.285233 618.477453,60.5031975 617.71,60.51 L617.71,60.51 Z" id="路径" fill="#212121"></path>
            <path d="M633.94,60.38 L633.94,45.91 L637.33,45.91 L637.33,57 L660.33,57 C666.195264,57 670.95,52.245264 670.95,46.38 C670.95,40.514736 666.195264,35.76 660.33,35.76 L633.94,35.76 L633.94,32.37 L660.32,32.37 C668.051986,32.37 674.32,38.6380135 674.32,46.37 C674.32,54.1019865 668.051986,60.37 660.32,60.37 L633.94,60.38 Z" id="路径" fill="#212121"></path>
            <path d="M98.24,92.58 C72.6773453,92.5689554 51.9626397,71.8393284 51.97,46.2766724 C51.9773642,20.7140164 72.704007,-0.00367513253 98.2666638,4.80023834e-06 C123.829321,0.00368473301 144.55,20.7273429 144.55,46.29 C144.522425,71.8516384 123.801648,92.5634665 98.24,92.58 Z M98.24,1.5 C73.5031661,1.5 53.45,21.5531661 53.45,46.29 C53.45,71.0268339 73.5031661,91.08 98.24,91.08 C122.976834,91.08 143.03,71.0268339 143.03,46.29 C143.002445,21.5645889 122.965411,1.52755537 98.24,1.5 L98.24,1.5 Z" id="形状" fill="url(#linearGradient-1)"></path>
            <path d="M98.25,89.65 L98.25,88.14 C125.8,88.14 148.25,69.37 148.25,46.29 C148.25,23.21 125.8,4.44 98.24,4.44 C70.68,4.44 48.24,23.21 48.24,46.29 C48.24,69.37 70.66,88.15 98.24,88.15 L98.24,89.66 C69.85,89.66 46.75,70.2 46.75,46.29 C46.75,22.38 69.85,2.93 98.23,2.93 C126.61,2.93 149.73,22.39 149.73,46.3 C149.73,70.21 126.63,89.65 98.25,89.65 Z" id="路径" fill="url(#linearGradient-2)"></path>
            <path d="M98.25,86.72 L98.25,86.72 C67,86.72 41.57,68.58 41.57,46.28 C41.57,23.98 66.99,5.85 98.24,5.85 C129.49,5.85 154.93,23.99 154.93,46.29 C154.93,68.59 129.55,86.72 98.25,86.72 Z M98.25,7.35 C67.82,7.35 43.07,24.82 43.07,46.28 C43.07,67.74 67.83,85.21 98.25,85.21 L98.25,85.21 C128.67,85.21 153.42,67.75 153.42,46.29 C153.42,24.83 128.66,7.35 98.24,7.35 L98.25,7.35 Z" id="形状" fill="url(#linearGradient-3)"></path>
            <path d="M98.26,83.79 L98.26,83.79 C64.14,83.79 36.38,66.96 36.38,46.28 C36.38,25.6 64.13,8.78 98.24,8.78 C132.35,8.78 160.13,25.61 160.13,46.29 C160.13,66.97 132.37,83.79 98.26,83.79 Z M98.26,10.28 C64.96,10.28 37.89,26.43 37.89,46.28 C37.89,66.13 64.97,82.28 98.26,82.28 L98.26,82.28 C131.54,82.28 158.61,66.13 158.61,46.28 C158.61,26.43 131.55,10.28 98.24,10.28 L98.26,10.28 Z" id="形状" fill="url(#linearGradient-4)"></path>
            <path d="M98.28,80.86 L98.28,80.86 C61.28,80.86 31.21,65.34 31.21,46.27 C31.21,27.2 61.28,11.7 98.21,11.7 C135.14,11.7 165.31,27.22 165.31,46.29 C165.31,65.36 135.24,80.86 98.28,80.86 Z M98.28,79.36 C115.8,79.36 132.28,75.83 144.8,69.42 C157.06,63.13 163.8,54.92 163.8,46.29 C163.8,37.66 157.04,29.44 144.8,23.15 C132.31,16.74 115.8,13.21 98.25,13.21 C80.7,13.21 64.17,16.73 51.69,23.14 C39.43,29.43 32.69,37.65 32.69,46.27 C32.69,54.89 39.45,63.12 51.69,69.42 C64.18,75.83 80.69,79.36 98.24,79.36" id="形状" fill="url(#linearGradient-5)"></path>
            <path d="M98.29,77.93 L98.24,77.93 C58.39,77.93 25.98,63.73 25.98,46.27 C25.98,28.81 58.37,14.63 98.19,14.63 C138.01,14.63 170.55,28.84 170.55,46.29 C170.55,63.74 138.11,77.93 98.29,77.93 Z M98.29,76.43 C136.62,76.43 169,62.63 169,46.29 C169,29.95 136.6,16.13 98.24,16.13 C59.88,16.13 27.48,29.93 27.48,46.27 C27.48,62.61 59.88,76.44 98.24,76.44" id="形状" fill="url(#linearGradient-6)"></path>
            <path d="M98.32,75 L98.24,75 C55.53,75 20.78,62.11 20.78,46.26 C20.78,30.41 55.5,17.56 98.17,17.56 C140.84,17.56 175.7,30.45 175.7,46.29 C175.7,62.13 140.99,75 98.32,75 Z M98.24,19.06 C57.04,19.06 22.24,31.52 22.24,46.26 C22.24,61 57.03,73.5 98.24,73.5 L98.32,73.5 C139.45,73.5 174.2,61.04 174.2,46.29 C174.2,31.54 139.41,19.06 98.24,19.06 L98.24,19.06 Z" id="形状" fill="url(#linearGradient-7)"></path>
            <path d="M98.34,72.07 L98.24,72.07 C76.48,72.07 55.83,69.38 40.1,64.5 C24.37,59.62 15.55,53.12 15.55,46.26 C15.55,39.4 24.24,32.94 40.03,28.04 C55.82,23.14 76.36,20.49 98.1,20.49 L98.2,20.49 C119.97,20.49 140.61,23.17 156.34,28.06 C172.07,32.95 180.85,39.44 180.85,46.3 C180.85,53.16 172.16,59.61 156.37,64.51 C140.58,69.41 120.08,72.07 98.34,72.07 Z M98.14,21.99 C54.96,21.99 17.14,33.33 17.14,46.26 C17.14,59.19 55.06,70.57 98.29,70.57 L98.39,70.57 C141.57,70.57 179.39,59.22 179.39,46.3 C179.39,33.38 141.47,21.99 98.24,21.99 L98.14,21.99 Z" id="形状" fill="url(#linearGradient-8)"></path>
            <path d="M98.38,69.14 L98.24,69.14 C75.17,69.14 53.24,66.75 36.47,62.41 C19.7,58.07 10.39,52.32 10.39,46.26 C10.39,40.2 19.64,34.47 36.39,30.13 C53.14,25.79 75.07,23.44 98.11,23.44 L98.24,23.44 C121.31,23.44 143.24,25.83 160.02,30.17 C176.8,34.51 186.09,40.26 186.09,46.33 C186.09,52.4 176.85,58.11 160.09,62.45 C143.33,66.79 121.42,69.14 98.38,69.14 Z M98.11,24.92 C47.3,24.92 11.89,36.16 11.89,46.26 C11.89,56.36 47.36,67.64 98.24,67.64 L98.38,67.64 C149.18,67.64 184.59,56.39 184.59,46.3 C184.59,36.21 149.13,24.92 98.24,24.92 L98.11,24.92 Z" id="形状" fill="url(#linearGradient-9)"></path>
            <path d="M98.43,66.21 L98.25,66.21 C47.81,66.21 5.25,57.07 5.25,46.21 C5.25,35.35 47.77,26.3 98.11,26.3 L98.3,26.3 C148.73,26.3 191.3,35.44 191.3,46.3 C191.3,57.16 148.76,66.21 98.43,66.21 Z M98.06,27.84 C73.85,27.84 50.77,29.92 33.06,33.69 C16.54,37.21 6.68,41.9 6.68,46.25 C6.68,50.6 16.56,55.32 33.12,58.85 C50.85,62.63 73.97,64.71 98.23,64.71 L98.41,64.71 C122.61,64.71 145.69,62.63 163.41,58.86 C179.93,55.34 189.79,50.65 189.79,46.3 C189.79,41.95 179.91,37.23 163.35,33.7 C145.62,29.93 122.5,27.84 98.26,27.84 L98.06,27.84 Z" id="形状" fill="url(#linearGradient-10)"></path>
            <path d="M98.55,63.28 L98.3,63.28 C45.04,63.28 0.05,55.48 0.05,46.28 C0.05,37.08 44.93,29.28 98.05,29.28 L98.3,29.28 C151.54,29.28 196.53,37.08 196.53,46.28 C196.53,55.48 151.61,63.28 98.55,63.28 Z M98.05,30.77 C72.58,30.77 48.21,32.55 29.4,35.77 C8.87,39.31 1.56,43.49 1.56,46.23 C1.56,48.97 8.89,53.17 29.49,56.72 C48.34,59.97 72.78,61.72 98.3,61.72 L98.55,61.72 C124,61.72 148.38,59.94 167.18,56.72 C187.71,53.18 195.03,49 195.03,46.26 C195.03,43.52 187.69,39.32 167.1,35.77 C148.24,32.52 123.81,30.77 98.3,30.77 L98.05,30.77 Z" id="形状" fill="url(#linearGradient-11)"></path>
        </g>
    </g>
</svg>